{"title":"Star Wars - Ep. IV - A New Hope [ENG ITA DTS 1080p]","uid":8767720,"size":11777031621,"categoryP":"video","categoryS":"hd___movies","magnet":"?xt=urn:btih:a3356b494662bbc24621a10f6e03de8a28cfbb81&amp;dn=Star+Wars+-+Ep.+IV+-+A+New+Hope+%5BENG+ITA+DTS+1080p%5D&amp;tr=udp%3A%2F%2Ftracker.openbittorrent.com%3A80&amp;tr=udp%3A%2F%2Fopen.demonii.com%3A1337&amp;tr=udp%3A%2F%2Ftracker.coppersurfer.tk%3A6969&amp;tr=udp%3A%2F%2Fexodus.desync.com%3A6969","seeders":2,"leechers":2,"uploader":"ziopino","files":1,"time":1375372956,"description":"Star Wars - Episode IV - A New Hope [DTS 1080p ITA ENG]\n\nFormat                                   : Matroska\nFormat version                           : Version 4 / Version 2\nFile size                                : 11.0 GiB\nDuration                                 : 2h 4mn\nOverall bit rate                         : 12.6 Mbps\nEncoded date                             : UTC 2013-07-28 20:19:38\nWriting application                      : mkvmerge v6.3.0 ('You can't stop me!') built on Jun 28 2013 20:09:41\nWriting library                          : libebml v1.3.0 + libmatroska v1.4.0\n\nVideo\nID                                       : 1\nFormat                                   : MPEG-4 Visual\nFormat profile                           : Advanced Simple@L1\nFormat settings, BVOP                    : No\nFormat settings, QPel                    : No\nFormat settings, GMC                     : No warppoints\nFormat settings, Matrix                  : Default (H.263)\nCodec ID                                 : V_MPEG4/ISO/ASP\nCodec ID/Info                            : Advanced Simple Profile\nDuration                                 : 2h 4mn\nBit rate                                 : 10.1 Mbps\nWidth                                    : 1 920 pixels\nHeight                                   : 1 080 pixels\nDisplay aspect ratio                     : 16:9\nFrame rate mode                          : Constant\nFrame rate                               : 23.976 fps\nColor space                              : YUV\nChroma subsampling                       : 4:2:0\nBit depth                                : 8 bits\nScan type                                : Progressive\nCompression mode                         : Lossy\nBits/(Pixel*Frame)                       : 0.202\nStream size                              : 8.77 GiB (80%)\nWriting library                          : Lavc54.40.100\nDefault                                  : Yes\nForced                                   : No\n\nAudio #1\nID                                       : 2\nFormat                                   : DTS\nFormat/Info                              : Digital Theater Systems\nFormat profile                           : ES\nMode                                     : 16\nFormat settings, Endianness              : Big\nCodec ID                                 : A_DTS\nDuration                                 : 2h 4mn\nBit rate mode                            : Constant\nBit rate                                 : 1 509 Kbps\nChannel(s)                               : 7 channels / 6 channels\nChannel positions                        : Front: L C R, Side: L R, Back: C, LFE / Front: L C R, Side: L R, LFE\nSampling rate                            : 48.0 KHz\nBit depth                                : 24 bits\nCompression mode                         : Lossy\nStream size                              : 1.31 GiB (12%)\nTitle                                    : DTS-HD\nLanguage                                 : English\nDefault                                  : Yes\nForced                                   : No\n\nAudio #2\nID                                       : 3\nFormat                                   : DTS\nFormat/Info                              : Digital Theater Systems\nMode                                     : 16\nFormat settings, Endianness              : Big\nCodec ID                                 : A_DTS\nDuration                                 : 2h 4mn\nBit rate mode                            : Constant\nBit rate                                 : 768 Kbps\nChannel(s)                               : 6 channels\nChannel positions                        : Front: L C R, Side: L R, LFE\nSampling rate                            : 48.0 KHz\nBit depth                                : 24 bits\nCompression mode                         : Lossy\nStream size                              : 685 MiB (6%)\nTitle                                    : DTS\nLanguage                                 : Italian\nDefault                                  : No\nForced                                   : No\n\nText #1\nID                                       : 4\nFormat                                   : UTF-8\nCodec ID                                 : S_TEXT/UTF8\nCodec ID/Info                            : UTF-8 Plain Text\nLanguage                                 : English\nDefault                                  : Yes\nForced                                   : No\n\nText #2\nID                                       : 5\nFormat                                   : UTF-8\nCodec ID                                 : S_TEXT/UTF8\nCodec ID/Info                            : UTF-8 Plain Text\nLanguage                                 : Italian\nDefault                                  : No\nForced                                   : No","torrent":{"xt":"urn:btih:a3356b494662bbc24621a10f6e03de8a28cfbb81","amp;dn":"Star+Wars+-+Ep.+IV+-+A+New+Hope+%5BENG+ITA+DTS+1080p%5D","amp;tr":["udp%3A%2F%2Ftracker.openbittorrent.com%3A80","udp%3A%2F%2Fopen.demonii.com%3A1337","udp%3A%2F%2Ftracker.coppersurfer.tk%3A6969","udp%3A%2F%2Fexodus.desync.com%3A6969"],"infoHash":"a3356b494662bbc24621a10f6e03de8a28cfbb81","infoHashBuffer":{"type":"Buffer","data":[163,53,107,73,70,98,187,194,70,33,161,15,110,3,222,138,40,207,187,129]},"announce":[],"urlList":[]}}